<mxfile host="app.diagrams.net" agent="Mozilla/5.0 (Windows NT 10.0; Win64; x64) AppleWebKit/537.36 (KHTML, like Gecko) Chrome/127.0.0.0 Safari/537.36" version="24.7.7">
  <diagram name="Page-1" id="ibnvSr_T1NublBlSOFrS">
    <mxGraphModel dx="1167" dy="589" grid="1" gridSize="10" guides="1" tooltips="1" connect="1" arrows="1" fold="1" page="1" pageScale="1" pageWidth="827" pageHeight="1169" math="0" shadow="0">
      <root>
        <mxCell id="0" />
        <mxCell id="1" parent="0" />
        <mxCell id="A74gnyUuTbYfJYZAHkdm-2" value="" style="fontColor=#0066CC;verticalAlign=top;verticalLabelPosition=bottom;labelPosition=center;align=center;html=1;outlineConnect=0;fillColor=#CCCCCC;strokeColor=#4D4D4D;gradientColor=none;gradientDirection=north;strokeWidth=2;shape=mxgraph.networks.pc;" vertex="1" parent="1">
          <mxGeometry x="20" y="160" width="140" height="120" as="geometry" />
        </mxCell>
        <mxCell id="A74gnyUuTbYfJYZAHkdm-3" value="" style="fontColor=#0066CC;verticalAlign=top;verticalLabelPosition=bottom;labelPosition=center;align=center;html=1;outlineConnect=0;fillColor=#CCCCCC;strokeColor=#4D4D4D;gradientColor=none;gradientDirection=north;strokeWidth=2;shape=mxgraph.networks.desktop_pc;" vertex="1" parent="1">
          <mxGeometry x="330" y="165" width="60" height="110" as="geometry" />
        </mxCell>
        <mxCell id="A74gnyUuTbYfJYZAHkdm-4" value="" style="fontColor=#0066CC;verticalAlign=top;verticalLabelPosition=bottom;labelPosition=center;align=center;html=1;outlineConnect=0;fillColor=#CCCCCC;strokeColor=#4D4D4D;gradientColor=none;gradientDirection=north;strokeWidth=2;shape=mxgraph.networks.desktop_pc;" vertex="1" parent="1">
          <mxGeometry x="330" y="430" width="60" height="110" as="geometry" />
        </mxCell>
        <mxCell id="A74gnyUuTbYfJYZAHkdm-5" value="" style="fontColor=#0066CC;verticalAlign=top;verticalLabelPosition=bottom;labelPosition=center;align=center;html=1;outlineConnect=0;fillColor=#CCCCCC;strokeColor=#4D4D4D;gradientColor=none;gradientDirection=north;strokeWidth=2;shape=mxgraph.networks.desktop_pc;" vertex="1" parent="1">
          <mxGeometry x="550" y="165" width="60" height="110" as="geometry" />
        </mxCell>
        <mxCell id="A74gnyUuTbYfJYZAHkdm-7" value="" style="html=1;verticalLabelPosition=bottom;align=center;labelBackgroundColor=#ffffff;verticalAlign=top;strokeWidth=2;strokeColor=#4D4D4D;shadow=0;dashed=0;shape=mxgraph.ios7.icons.data;" vertex="1" parent="1">
          <mxGeometry x="580" y="224" width="50" height="60" as="geometry" />
        </mxCell>
        <mxCell id="A74gnyUuTbYfJYZAHkdm-11" value="&lt;font color=&quot;#2089eb&quot; size=&quot;1&quot;&gt;&lt;span style=&quot;font-size: 16px;&quot;&gt;Requêtes HTTP&lt;/span&gt;&lt;/font&gt;" style="text;html=1;align=center;verticalAlign=middle;whiteSpace=wrap;rounded=0;" vertex="1" parent="1">
          <mxGeometry x="160" y="180" width="163" height="30" as="geometry" />
        </mxCell>
        <mxCell id="A74gnyUuTbYfJYZAHkdm-12" value="&lt;font color=&quot;#2089eb&quot; size=&quot;1&quot;&gt;&lt;span style=&quot;font-size: 16px;&quot;&gt;Requêtes SQL&lt;/span&gt;&lt;/font&gt;" style="text;html=1;align=center;verticalAlign=middle;whiteSpace=wrap;rounded=0;" vertex="1" parent="1">
          <mxGeometry x="390" y="180" width="163" height="30" as="geometry" />
        </mxCell>
        <mxCell id="A74gnyUuTbYfJYZAHkdm-13" value="&lt;font style=&quot;font-size: 14px;&quot;&gt;&lt;b&gt;Niveau 1&lt;/b&gt;&lt;/font&gt;" style="text;html=1;align=center;verticalAlign=middle;whiteSpace=wrap;rounded=0;" vertex="1" parent="1">
          <mxGeometry x="70" y="120" width="60" height="30" as="geometry" />
        </mxCell>
        <mxCell id="A74gnyUuTbYfJYZAHkdm-14" value="&lt;font style=&quot;font-size: 14px;&quot;&gt;&lt;b&gt;Niveau 2&lt;/b&gt;&lt;/font&gt;" style="text;html=1;align=center;verticalAlign=middle;whiteSpace=wrap;rounded=0;" vertex="1" parent="1">
          <mxGeometry x="330" y="121" width="60" height="30" as="geometry" />
        </mxCell>
        <mxCell id="A74gnyUuTbYfJYZAHkdm-15" value="&lt;font style=&quot;font-size: 14px;&quot;&gt;&lt;b&gt;Niveau 3&lt;/b&gt;&lt;/font&gt;" style="text;html=1;align=center;verticalAlign=middle;whiteSpace=wrap;rounded=0;" vertex="1" parent="1">
          <mxGeometry x="550" y="120" width="60" height="30" as="geometry" />
        </mxCell>
        <mxCell id="A74gnyUuTbYfJYZAHkdm-16" value="" style="endArrow=classic;startArrow=classic;html=1;rounded=0;strokeWidth=3;strokeColor=#666666;" edge="1" parent="1">
          <mxGeometry width="50" height="50" relative="1" as="geometry">
            <mxPoint x="181.5" y="219.55" as="sourcePoint" />
            <mxPoint x="301.5" y="219.55" as="targetPoint" />
          </mxGeometry>
        </mxCell>
        <mxCell id="A74gnyUuTbYfJYZAHkdm-17" value="" style="endArrow=classic;startArrow=classic;html=1;rounded=0;strokeWidth=3;strokeColor=#666666;" edge="1" parent="1">
          <mxGeometry width="50" height="50" relative="1" as="geometry">
            <mxPoint x="411.5" y="219.55" as="sourcePoint" />
            <mxPoint x="531.5" y="219.55" as="targetPoint" />
          </mxGeometry>
        </mxCell>
        <mxCell id="A74gnyUuTbYfJYZAHkdm-18" value="" style="endArrow=classic;startArrow=classic;html=1;rounded=0;strokeWidth=3;strokeColor=#666666;" edge="1" parent="1">
          <mxGeometry width="50" height="50" relative="1" as="geometry">
            <mxPoint x="359.5" y="330" as="sourcePoint" />
            <mxPoint x="359.5" y="420" as="targetPoint" />
          </mxGeometry>
        </mxCell>
        <mxCell id="A74gnyUuTbYfJYZAHkdm-19" value="&lt;font style=&quot;font-size: 14px;&quot;&gt;&lt;b&gt;Client léger (navigateur)&lt;/b&gt;&lt;/font&gt;" style="text;html=1;align=center;verticalAlign=middle;whiteSpace=wrap;rounded=0;" vertex="1" parent="1">
          <mxGeometry x="5" y="280" width="190" height="30" as="geometry" />
        </mxCell>
        <mxCell id="A74gnyUuTbYfJYZAHkdm-20" value="&lt;font style=&quot;font-size: 14px;&quot;&gt;&lt;b&gt;Serveur d&#39;application (composants métiers)&lt;/b&gt;&lt;/font&gt;" style="text;html=1;align=center;verticalAlign=middle;whiteSpace=wrap;rounded=0;" vertex="1" parent="1">
          <mxGeometry x="240" y="287" width="240" height="30" as="geometry" />
        </mxCell>
        <mxCell id="A74gnyUuTbYfJYZAHkdm-21" value="&lt;font style=&quot;font-size: 14px;&quot;&gt;&lt;b&gt;Serveur de données&lt;/b&gt;&lt;/font&gt;" style="text;html=1;align=center;verticalAlign=middle;whiteSpace=wrap;rounded=0;" vertex="1" parent="1">
          <mxGeometry x="470" y="280" width="240" height="30" as="geometry" />
        </mxCell>
        <mxCell id="A74gnyUuTbYfJYZAHkdm-22" value="&lt;font style=&quot;font-size: 14px;&quot;&gt;&lt;b&gt;Machine virtuelle (Serveur DNS)&lt;/b&gt;&lt;/font&gt;" style="text;html=1;align=center;verticalAlign=middle;whiteSpace=wrap;rounded=0;" vertex="1" parent="1">
          <mxGeometry x="250" y="555" width="240" height="30" as="geometry" />
        </mxCell>
        <mxCell id="A74gnyUuTbYfJYZAHkdm-23" value="&lt;font color=&quot;#2089eb&quot; size=&quot;1&quot;&gt;&lt;span style=&quot;font-size: 16px;&quot;&gt;Exécutions des scripts&lt;/span&gt;&lt;/font&gt;" style="text;html=1;align=center;verticalAlign=middle;whiteSpace=wrap;rounded=0;" vertex="1" parent="1">
          <mxGeometry x="370" y="360" width="163" height="30" as="geometry" />
        </mxCell>
      </root>
    </mxGraphModel>
  </diagram>
</mxfile>
